nColumns=19
nRows=83
DataType=double
version=3
OpenSimVersion=4.1
endheader
time	ground_force_1_vx	ground_force_1_vy	ground_force_1_vz	ground_force_1_px	ground_force_1_py	ground_force_1_pz	ground_force_1_mx	ground_force_1_my	ground_force_1_mz	ground_force_2_vx	ground_force_2_vy	ground_force_2_vz	ground_force_2_px	ground_force_2_py	ground_force_2_pz	ground_force_2_mx	ground_force_2_my	ground_force_2_mz
0	-34.0392	173.223	2.94075	0.129035	0.006	-0.158547	0	0.49832	0	0	0	0	0.756277	0	-0.327647	0	0	0
0.01	-40.9932	212.66	0.678594	0.132154	0.006	-0.157204	0	0.506292	0	0	0	0	0.756277	0	-0.327647	0	0	0
0.02	-49.0473	256.088	-2.03056	0.135757	0.006	-0.155917	0	0.517217	0	0	0	0	0.756277	0	-0.327647	0	0	0
0.03	-57.9446	302.301	-5.19373	0.139318	0.006	-0.154845	0	0.526252	0	0	0	0	0.756277	0	-0.327647	0	0	0
0.04	-67.2695	349.844	-8.80924	0.142849	0.006	-0.153906	0	0.528577	0	0	0	0	0.756277	0	-0.327647	0	0	0
0.05	-76.5216	397.041	-12.8636	0.146348	0.006	-0.153038	0	0.519046	0	0	0	0	0.756277	0	-0.327647	0	0	0
0.06	-85.1747	442.105	-17.318	0.149804	0.006	-0.152195	0	0.493094	0	0	0	0	0.756277	0	-0.327647	0	0	0
0.07	-92.7178	483.356	-22.093	0.153206	0.006	-0.151346	0	0.448543	0	0	0	0	0.756277	0	-0.327647	0	0	0
0.08	-98.7322	519.423	-27.0593	0.156553	0.006	-0.150471	0	0.386133	0	0	0	0	0.756277	0	-0.327647	0	0	0
0.09	-102.96	549.411	-32.0492	0.159861	0.006	-0.149558	0	0.309028	0	0	0	0	0.756277	0	-0.327647	0	0	0
0.1	-105.317	572.944	-36.8719	0.16316	0.006	-0.148603	0	0.221977	0	0	0	0	0.756277	0	-0.327647	0	0	0
0.11	-105.858	590.077	-41.3218	0.166486	0.006	-0.14761	0	0.130717	0	0	0	0	0.756277	0	-0.327647	0	0	0
0.12	-104.734	601.151	-45.1986	0.169879	0.006	-0.146584	0	0.040506	0	0	0	0	0.756277	0	-0.327647	0	0	0
0.13	-102.159	606.676	-48.3406	0.173373	0.006	-0.145534	0	-0.045709	0	0	0	0	0.756277	0	-0.327647	0	0	0
0.14	-98.3822	607.253	-50.6538	0.177005	0.006	-0.144463	0	-0.128091	0	0	0	0	0.756277	0	-0.327647	0	0	0
0.15	-93.6745	603.532	-52.1189	0.180803	0.006	-0.14337	0	-0.209218	0	0	0	0	0.756277	0	-0.327647	0	0	0
0.16	-88.303	596.183	-52.7859	0.184796	0.006	-0.142252	0	-0.292949	0	0	0	0	0.756277	0	-0.327647	0	0	0
0.17	-82.5201	585.898	-52.7614	0.189004	0.006	-0.1411	0	-0.383327	0	0	0	0	0.756277	0	-0.327647	0	0	0
0.18	-76.5521	573.384	-52.1869	0.193441	0.006	-0.139906	0	-0.483431	0	0	0	0	0.756277	0	-0.327647	0	0	0
0.19	-70.5905	559.353	-51.2142	0.198112	0.006	-0.138662	0	-0.595012	0	0	0	0	0.756277	0	-0.327647	0	0	0
0.2	-64.7845	544.516	-49.9853	0.203007	0.006	-0.137368	0	-0.718796	0	0	0	0	0.756277	0	-0.327647	0	0	0
0.21	-59.2389	529.548	-48.6196	0.208095	0.006	-0.136028	0	-0.854931	0	0	0	0	0.756277	0	-0.327647	0	0	0
0.22	-54.0171	515.059	-47.211	0.213327	0.006	-0.134654	0	-1.00341	0	0	0	0	0.756277	0	-0.327647	0	0	0
0.23	-49.1452	501.562	-45.8304	0.218635	0.006	-0.133268	0	-1.16439	0	0	0	0	0.756277	0	-0.327647	0	0	0
0.24	-44.6179	489.451	-44.5354	0.223934	0.006	-0.131892	0	-1.33802	0	0	0	0	0.756277	0	-0.327647	0	0	0
0.25	-40.4047	478.993	-43.3792	0.229136	0.006	-0.130549	0	-1.52385	0	0	0	0	0.756277	0	-0.327647	0	0	0
0.26	-36.4616	470.333	-42.4137	0.234153	0.006	-0.129262	0	-1.72006	0	0	0	0	0.756277	0	-0.327647	0	0	0
0.27	-32.7423	463.513	-41.6878	0.238911	0.006	-0.128046	0	-1.9233	0	0	0	0	0.756277	0	-0.327647	0	0	0
0.28	-29.2053	458.484	-41.2432	0.243357	0.006	-0.126916	0	-2.12878	0	0	0	0	0.756277	0	-0.327647	0	0	0
0.29	-25.8163	455.144	-41.1108	0.247461	0.006	-0.12588	0	-2.33077	0	0	0	0	0.756277	0	-0.327647	0	0	0
0.3	-22.5476	453.355	-41.3094	0.251216	0.006	-0.124946	0	-2.5232	0	0	0	0	0.756277	0	-0.327647	0	0	0
0.31	-19.376	452.97	-41.8447	0.254633	0.006	-0.12412	0	-2.70014	0	0	0	0	0.756277	0	-0.327647	0	0	0
0.32	-16.2795	453.838	-42.7098	0.257741	0.006	-0.123407	0	-2.85638	0	0	0	0	0.756277	0	-0.327647	0	0	0
0.33	-13.2326	455.819	-43.8861	0.260577	0.006	-0.122809	0	-2.98778	0	0	0	0	0.756277	0	-0.327647	0	0	0
0.34	-10.2035	458.783	-45.3443	0.26318	0.006	-0.122331	0	-3.09133	0	0	0	0	0.756277	0	-0.327647	0	0	0
0.35	-7.15309	462.619	-47.0458	0.265593	0.006	-0.121974	0	-3.16531	0	0	0	0	0.756277	0	-0.327647	0	0	0
0.36	-4.03663	467.241	-48.9431	0.267856	0.006	-0.121741	0	-3.20947	0	0	0	0	0.756277	0	-0.327647	0	0	0
0.37	-0.807246	472.588	-50.982	0.270003	0.006	-0.121633	0	-3.22476	0	0	0	0	0.756277	0	-0.327647	0	0	0
0.38	2.58065	478.614	-53.1027	0.272063	0.006	-0.121652	0	-3.21314	0	0	0	0	0.756277	0	-0.327647	0	0	0
0.39	6.16856	485.284	-55.2422	0.274059	0.006	-0.121796	0	-3.17752	0	0	0	0	0.756277	0	-0.327647	0	0	0
0.4	9.99255	492.554	-57.3369	0.276011	0.006	-0.122061	0	-3.12147	0	0	0	0	0.756277	0	-0.327647	0	0	0
0.41	14.0833	500.354	-59.3253	0.277932	0.006	-0.122442	0	-3.04882	0	0	0	0	0.756277	0	-0.327647	0	0	0
0.42	18.4668	508.576	-61.1507	0.279834	0.006	-0.122929	0	-2.96327	0	0	0	0	0.756277	0	-0.327647	0	0	0
0.43	23.1649	517.065	-62.7629	0.281725	0.006	-0.123513	0	-2.86831	0	0	0	0	0.756277	0	-0.327647	0	0	0
0.44	28.1944	525.618	-64.1188	0.283609	0.006	-0.12418	0	-2.76694	0	0	0	0	0.756277	0	-0.327647	0	0	0
0.45	33.5631	533.986	-65.1808	0.285488	0.006	-0.124916	0	-2.6617	0	0	0	0	0.756277	0	-0.327647	0	0	0
0.46	39.2635	541.876	-65.9162	0.287363	0.006	-0.125704	0	-2.55464	0	0	0	0	0.756277	0	-0.327647	0	0	0
0.47	45.267	548.958	-66.297	0.289231	0.006	-0.126529	0	-2.44727	0	0	0	0	0.756277	0	-0.327647	0	0	0
0.48	51.5216	554.87	-66.2992	0.29109	0.006	-0.127375	0	-2.34062	0	0	0	0	0.756277	0	-0.327647	0	0	0
0.49	57.9494	559.229	-65.9029	0.292937	0.006	-0.128226	0	-2.23531	0	0	0	0	0.756277	0	-0.327647	0	0	0
0.5	64.4457	561.637	-65.0937	0.29477	0.006	-0.129068	0	-2.13162	0	0	0	0	0.756277	0	-0.327647	0	0	0
0.51	70.8788	561.692	-63.8631	0.296586	0.006	-0.129887	0	-2.02938	0	0	0	0	0.756277	0	-0.327647	0	0	0
0.52	77.0912	558.997	-62.2111	0.298384	0.006	-0.130672	0	-1.9278	0	0	0	0	0.756277	0	-0.327647	0	0	0
0.53	82.9038	553.172	-60.1454	0.300167	0.006	-0.131416	0	-1.82567	0	0	0	0	0.756277	0	-0.327647	0	0	0
0.54	88.1231	543.88	-57.68	0.301938	0.006	-0.132111	0	-1.72169	0	-3.62629	22.6543	-2.09606	0.756277	0.006	-0.327647	0	0.458525	0
0.55	92.5485	530.836	-54.8328	0.303703	0.006	-0.132756	0	-1.61508	0	-7.24778	43.8358	-1.34219	0.792636	0.006	-0.346724	0	0.529574	0
0.56	95.9804	513.831	-51.625	0.305469	0.006	-0.133348	0	-1.50593	0	-11.9707	70.5897	-0.295715	0.810137	0.006	-0.355432	0	0.5341	0
0.57	98.2293	492.755	-48.082	0.307243	0.006	-0.13389	0	-1.39509	0	-17.9083	103.276	1.08907	0.820354	0.006	-0.360175	0	0.512891	0
0.58	99.1261	467.613	-44.2362	0.309034	0.006	-0.134383	0	-1.28385	0	-25.1306	141.959	2.8518	0.827334	0.006	-0.36316	0	0.477875	0
0.59	98.5331	438.556	-40.1317	0.310856	0.006	-0.134833	0	-1.17334	0	-33.6439	186.288	5.02116	0.832655	0.006	-0.365234	0	0.434769	0
0.6	96.3582	405.899	-35.8292	0.312723	0.006	-0.135243	0	-1.0642	0	-43.3819	235.409	7.6103	0.837067	0.006	-0.366792	0	0.388024	0
0.61	92.5731	370.143	-31.4078	0.314656	0.006	-0.135618	0	-0.956383	0	-54.1473	288.034	10.6103	0.840965	0.006	-0.368042	0	0.342066	0
0.62	87.2297	331.986	-26.9657	0.316678	0.006	-0.135962	0	-0.849414	0	-65.5521	342.57	13.9885	0.844561	0.006	-0.369104	0	0.300754	0
0.63	80.4714	292.308	-22.6151	0.318818	0.006	-0.136277	0	-0.742704	0	-77.0783	397.192	17.6905	0.847961	0.006	-0.37005	0	0.267276	0
0.64	72.5383	252.128	-18.473	0.32112	0.006	-0.136566	0	-0.635893	0	-88.1448	449.891	21.6446	0.851214	0.006	-0.370931	0	0.245002	0
0.65	63.7659	212.53	-14.6461	0.32364	0.006	-0.136829	0	-0.529442	0	-98.1381	498.613	25.7629	0.854335	0.006	-0.371784	0	0.237293	0
0.66	54.5567	174.578	-11.2171	0.326474	0.006	-0.137064	0	-0.425058	0	-106.481	541.493	29.9432	0.857326	0.006	-0.372639	0	0.246366	0
0.67	45.3336	139.228	-8.23583	0.329775	0.006	-0.137268	0	-0.325397	0	-112.726	577.109	34.0667	0.860188	0.006	-0.37352	0	0.272256	0
0.68	36.4902	107.246	-5.71684	0.33382	0.006	-0.13743	0	-0.233521	0	-116.615	604.678	37.9937	0.862937	0.006	-0.374443	0	0.312495	0
0.69	28.348	79.1559	-3.64468	0.339136	0.006	-0.137529	0	-0.152179	0	-118.091	624.11	41.5686	0.865596	0.006	-0.375413	0	0.363423	0
0.7	21.1287	55.2173	-1.98687	0.346819	0.006	-0.137513	0	-0.083934	0	-117.269	635.894	44.6345	0.868197	0.006	-0.376432	0	0.421154	0
0.71	14.9431	35.4417	-0.703882	0.359548	0.006	-0.137253	0	-0.032387	0	-114.387	640.864	47.0547	0.870769	0.006	-0.377495	0	0.482733	0
0.72	0	0	0	0.384672	0	-0.136667	0	0	0	-109.766	639.995	48.7359	0.873345	0.006	-0.378595	0	0.547155	0
0.73	0	0	0	0.41061	0	-0.138622	0	0	0	-103.767	634.274	49.6456	0.875953	0.006	-0.379728	0	0.615675	0
0.74	0	0	0	0.436548	0	-0.140577	0	0	0	-96.7609	624.636	49.8178	0.878622	0.006	-0.380894	0	0.691029	0
0.75	0	0	0	0.462486	0	-0.142531	0	0	0	-89.1064	611.942	49.3443	0.88138	0.006	-0.382092	0	0.776156	0
0.76	0	0	0	0.488424	0	-0.144486	0	0	0	-81.1298	596.986	48.3553	0.884255	0.006	-0.383324	0	0.873142	0
0.77	0	0	0	0.514362	0	-0.146441	0	0	0	-73.1125	580.5	46.9964	0.887272	0.006	-0.384594	0	0.982515	0
0.78	0	0	0	0.540299	0	-0.148396	0	0	0	-65.2852	563.164	45.4068	0.890453	0.006	-0.3859	0	1.10323	0
0.79	0	0	0	0.566237	0	-0.150351	0	0	0	-57.8289	545.605	43.7052	0.893814	0.006	-0.38724	0	1.23319	0
0.8	0	0	0	0.592175	0	-0.152306	0	0	0	-50.8782	528.389	41.9813	0.897364	0.006	-0.388603	0	1.37004	0
0.81	0	0	0	0.618113	0	-0.15426	0	0	0	-44.5224	512.021	40.296	0.901101	0.006	-0.389974	0	1.51189	0
0.82	0	0	0	0.644051	0	-0.156215	0	0	0	-38.8073	496.931	38.69	0.905009	0.006	-0.391334	0	1.65759	0
